# xmcd
#
# Track frame offsets:
#	150
#	27257
#	50747
#	82242
#	116884
#	152456
#	177974
#	205747
#	248421
#	289646
#
# Disc length: 4243 seconds
#
# Revision: 0
# Processed by: cddbd v1.5.2PL0 Copyright (c) Steve Scherf et al.
# Submitted via: audiograbber 1.83.01
#
DISCID=8410910a
DTITLE=Grateful Dead - 93-03-25 Dean Smith Centre, Chapel Hill NC
DYEAR=1900
DGENRE=
TTITLE0=Touch Of Grey
TTITLE1=Greatest Story Ever Told
TTITLE2=So Many Roads
TTITLE3=New Minglewood Blues
TTITLE4=Lazy River Road
TTITLE5=Mexicali Blues
TTITLE6=Big River
TTITLE7=Friend Of The Devil
TTITLE8=Eternity
TTITLE9=Liberty
EXTD=
EXTT0=
EXTT1=
EXTT2=
EXTT3=
EXTT4=
EXTT5=
EXTT6=
EXTT7=
EXTT8=
EXTT9=
PLAYORDER=
